<?xml version="1.0" encoding="UTF-8"?><svg id="Layer_3" xmlns="http://www.w3.org/2000/svg" width="17" height="17" xmlns:xlink="http://www.w3.org/1999/xlink" viewBox="0 0 17 17"><defs><style>.cls-1,.cls-2{fill:none;stroke:#000;stroke-miterlimit:10;}.cls-2{stroke-linecap:round;}.cls-3{clip-path:url(#clippath);}</style><clipPath id="clippath"><polyline class="cls-1" points="6.498 16.5 .5 16.5 .5 .5 16.5 .5 16.5 16.5 6.498 16.5"/></clipPath></defs><g class="cls-3"><g><path class="cls-1" d="M2.304,23.647l2.121-7.125c.138-.464,.165-.956,.059-1.428l-.002-.008-.207-.915c-.069-.306-.154-.608-.256-.904l-.437-1.276-.476-1.253-.129-.36c-.068-.19-.083-.394-.046-.592l.006-.032c.026-.137,.098-.261,.204-.351l.041-.035c.123-.105,.278-.163,.439-.164h.112c.172-.003,.426,.057,.58,.135l.271,.129c.096,.049,.313,.192,.4,.255l.443,.36c.095,.069,.367,.297,.45,.38l.371,.371,.345,.418c.173,.209,.417,.576,.543,.816l.135,.257c.02,.038,.04,.077,.059,.118,.243,.506,.371,1.059,.4,1.62l.036,.694"/><path class="cls-2" d="M1.561,64.13c-.033,.334-.015,.676,.091,.995,.122,.367,.323,.656,.638,.866,.767,.512,2.739,1.265,4.268,1.809,2.655,.944,5.877,.725,6.529,.59,1.397-.289,3.127-.472,4.484-2.635,.508-.809,1.014-2.494,1.41-3.712,.226-.693,.399-1.401,.518-2.12l.274-1.648c.066-.397,.135-1.033,.155-1.435l.048-1.215c.027-.527-.019-1.056-.136-1.57l-.478-1.939c-.125-.551-.191-1.114-.198-1.68l-.004-.214c-.01-.576,.048-1.151,.176-1.713l.014-.061c.112-.493,.307-.963,.578-1.39l2.796-4.409,.684-1.107c.092-.148,.164-.321,.22-.505,.091-.3,.117-.617,.105-.93l-.004-.103c-.011-.158-.029-.521-.106-.752-.109-.327-.155-.534-.354-.816l-.194-.294c-.213-.3-.497-.543-.826-.706h0c-.308-.153-.637-.258-.977-.314l-.152-.025c-.254-.052-.753-.07-1.012-.063l-.768,.019c-.324,.008-.625,.172-.807,.44l-3.642,5.373,5.729-8.535,.143-.226c.102-.162,.187-.336,.243-.519,.181-.58,.15-.978,.112-1.383,0,0-.027-.508-.303-1.124l-.142-.263c-.067-.087-.118-.157-.166-.22-.2-.269-.441-.504-.713-.699l-.138-.099c-.323-.226-.617-.319-1.084-.438l-.124-.02c-.599-.095-1.208-.106-1.81-.035l-.837,.099-7.807,10.131,8.601-11.17c.656-.892,.702-1.651,.668-2.273,0,0-.026-.729-.28-1.33-.088-.207-.194-.407-.323-.591l-.006-.008c-.188-.268-.541-.664-.786-.881l-.035-.031c-.259-.202-3.381-6.194-3.561-6.266l-.226-.09c-.198-.076-.509-.145-.721-.16l-.703-.046L1.569,35.337,14.635,11.677c.059-.074,.134-.197,.196-.318,.068-.132,.113-.274,.138-.42l.035-.231c.037-.394,.033-.769-.222-1.136-.019-.027-.052-.075-.106-.151-.041-.057-.089-.11-.142-.156l-.092-.08c-.108-.097-.138-.108-.264-.181-.036-.021-.071-.04-.1-.054-.187-.087-.386-.144-.59-.169l-.02-.002c-.191-.024-.385-.012-.572,.033-.403,.098-.495,.14-.793,.365l-.375,.389-1.083,1.253L-4.31,31.305c-.454,.525-.874,1.08-1.245,1.666-.138,.218-.265,.434-.352,.614-.289,.595-.474,1.087-.616,1.718-.442,1.961-.075,3.875,.087,4.501,.21,.809,4.532,11.148,5.884,14.348,.22,.522,1.246,2.991,1.583,3.916l.173,.485c.043,.14,.113,.364,.183,.588,.176,.565,.287,1.149,.321,1.739,.013,.226,.021,1.088,.013,1.236l-.079,1.2-.08,.815Z"/></g><g><path class="cls-1" d="M8.5,9.197l1.314-.652c.581-.355,1.075-.714,1.589-1.222l.515-.574c.278-.348,.559-.849,.681-1.296l.066-.299c.016-.057,.029-.147,.04-.246,.033-.308,.021-.521-.014-.833l-.031-.202c-.079-.381-.263-.696-.534-1.008-.017-.019-.034-.038-.052-.056h0c-.111-.11-.227-.215-.355-.305-.183-.129-.379-.233-.598-.282h0c-.325-.073-.662-.067-.984,.018l-.069,.018c-.169,.045-.328,.124-.465,.233l-.255,.202c-.094,.075-.181,.158-.26,.249l-.588,.573"/><path class="cls-1" d="M8.755,9.205l-1.251-.661c-.581-.355-1.075-.714-1.589-1.222l-.515-.575c-.278-.348-.559-.849-.681-1.296l-.066-.299c-.016-.057-.029-.147-.04-.246-.033-.308-.021-.521,.014-.833l.031-.202c.079-.381,.263-.696,.534-1.008,.017-.019,.034-.038,.052-.056,.111-.11,.227-.215,.355-.305,.183-.129,.378-.233,.598-.282h0c.325-.073,.662-.067,.984,.018l.011,.003c.267,.05,.704,.38,.704,.38,.094,.075,.494,.392,.573,.482l.395,.382"/></g></g><polyline class="cls-1" points="6.498 16.5 .5 16.5 .5 .5 16.5 .5 16.5 16.5 6.498 16.5"/></svg>