<svg id="Component_4_1" data-name="Component 4 – 1" xmlns="http://www.w3.org/2000/svg" width="58" height="58" viewBox="0 0 58 58">
  <path id="Icon_awesome-instagram" data-name="Icon awesome-instagram" d="M15.757,9.914a8.079,8.079,0,1,0,8.079,8.079A8.066,8.066,0,0,0,15.757,9.914Zm0,13.331a5.252,5.252,0,1,1,5.252-5.252,5.262,5.262,0,0,1-5.252,5.252ZM26.051,9.584A1.884,1.884,0,1,1,24.166,7.7,1.88,1.88,0,0,1,26.051,9.584ZM31.4,11.5a9.325,9.325,0,0,0-2.545-6.6,9.387,9.387,0,0,0-6.6-2.545c-2.6-.148-10.4-.148-13,0a9.373,9.373,0,0,0-6.6,2.538,9.356,9.356,0,0,0-2.545,6.6c-.148,2.6-.148,10.4,0,13a9.325,9.325,0,0,0,2.545,6.6,9.4,9.4,0,0,0,6.6,2.545c2.6.148,10.4.148,13,0a9.325,9.325,0,0,0,6.6-2.545,9.387,9.387,0,0,0,2.545-6.6c.148-2.6.148-10.392,0-12.994ZM28.041,27.281a5.318,5.318,0,0,1-3,3c-2.074.823-7,.633-9.288.633s-7.221.183-9.288-.633a5.318,5.318,0,0,1-3-3c-.823-2.074-.633-7-.633-9.288s-.183-7.221.633-9.288a5.318,5.318,0,0,1,3-3c2.074-.823,7-.633,9.288-.633s7.221-.183,9.288.633a5.318,5.318,0,0,1,3,3c.823,2.074.633,7,.633,9.288S28.863,25.214,28.041,27.281Z" transform="translate(13.246 11.008)" fill="#fff" stroke="#fff" stroke-width="1"/>
  <g id="Ellipse_97" data-name="Ellipse 97" fill="none" stroke="#fff" stroke-width="3">
    <circle cx="29" cy="29" r="29" stroke="none"/>
    <circle cx="29" cy="29" r="27.5" fill="none"/>
  </g>
</svg>
