<?xml version="1.0" encoding="UTF-8"?><svg xmlns="http://www.w3.org/2000/svg" width="92.7923" height="92.7923" xmlns:xlink="http://www.w3.org/1999/xlink" viewBox="0 0 92.7923 92.7923"><defs><style>.d{clip-path:url(#c);}.e,.f{fill:none;stroke:#fff;stroke-miterlimit:10;stroke-width:4px;}.f{stroke-linecap:round;}</style><clipPath id="c"><polyline class="e" points="35.2847 90.7923 2 90.7923 2 2 90.7923 2 90.7923 90.7923 35.2847 90.7923"/></clipPath></defs><g id="a"/><g id="b"><g><g class="d"><g><path class="e" d="M12.0124,130.453l11.7699-39.5386c.7661-2.5735,.9154-5.3056,.3263-7.9253l-.0096-.0427-1.1468-5.0786c-.3832-1.6969-.8574-3.372-1.4205-5.018l-2.4234-7.0834-2.64-6.9543-.7138-1.9988c-.3758-1.0522-.4632-2.1859-.253-3.2833l.0339-.177c.1454-.7594,.5452-1.4467,1.1335-1.9485l.2274-.1939c.6803-.5803,1.543-.9028,2.4371-.9112l.6232-.0058c.9562-.0089,2.3665,.3207,3.2196,.7526l1.502,.7149c.533,.2698,1.7385,1.065,2.2215,1.4166l2.46,1.9993c.5271,.3836,2.0372,1.65,2.4982,2.111l2.0605,2.0605,1.9172,2.3212c.9574,1.1592,2.3127,3.1966,3.0118,4.5275l.748,1.4241c.1106,.2106,.2209,.4301,.33,.6569,1.3498,2.8061,2.0567,5.8781,2.2199,8.9877l.2021,3.8516"/><path class="f" d="M7.8863,355.1182c-.1825,1.8555-.0843,3.7516,.5053,5.5205,.6791,2.0375,1.7947,3.6388,3.5409,4.8049,4.2542,2.8409,15.2011,7.022,23.6829,10.0377,14.7336,5.2386,32.6173,4.0213,36.2337,3.2741,7.7532-1.6018,17.3529-2.6193,24.8834-14.6245,2.8171-4.4911,5.6278-13.8421,7.826-20.5996,1.2517-3.8479,2.2129-7.7757,2.8757-11.7674l1.5189-9.1481c.3654-2.201,.7464-5.7332,.8587-7.9615l.2646-6.7446c.1475-2.9257-.106-5.8578-.7533-8.7148l-2.6535-10.7602c-.6933-3.06-1.061-6.1848-1.0969-9.3221l-.0216-1.19c-.0581-3.1968,.269-6.3889,.9744-9.5074l.0763-.3372c.619-2.7367,1.7036-5.3468,3.2064-7.7163l15.5185-24.4678,3.7965-6.1434c.5082-.8223,.912-1.7824,1.2217-2.8032,.5057-1.6668,.6471-3.4229,.58-5.1634l-.0219-.569c-.0622-.8786-.1596-2.892-.5874-4.1757-.6052-1.8164-.8582-2.9638-1.9651-4.526l-1.0773-1.6334c-1.1805-1.6662-2.7567-3.0128-4.5866-3.9188h0c-1.7102-.8468-3.5371-1.4339-5.4205-1.7421l-.8427-.1379c-1.4085-.2902-4.1794-.3862-5.617-.3509l-4.2642,.1047c-1.7993,.0442-3.4665,.9546-4.4764,2.4443l-20.2122,29.8153,31.7955-47.3658,.7933-1.2544c.5672-.8969,1.0357-1.8646,1.351-2.8779,1.0017-3.2198,.8316-5.4263,.6232-7.6732,0,0-.1482-2.819-1.6824-6.2364l-.7898-1.4608c-.3692-.481-.6575-.8705-.9197-1.2219-1.1125-1.4907-2.4451-2.7973-3.9565-3.8816l-.7682-.5511c-1.7944-1.256-3.4268-1.7687-6.015-2.428l-.6862-.1083c-3.324-.5248-6.7043-.5899-10.046-.1934l-4.6466,.5514-43.3235,56.2208,47.7296-61.9903c3.6379-4.9476,3.8965-9.1611,3.7095-12.615,0,0-.1443-4.0467-1.5538-7.3836-.4859-1.1504-1.0742-2.259-1.7904-3.2821l-.0306-.0437c-1.0406-1.4866-3.0045-3.6862-4.3641-4.8881l-.1957-.173c-1.4381-1.1185-18.7655-34.3759-19.7633-34.7756l-1.2525-.5017c-1.0992-.4224-2.8249-.8064-3.9996-.8899l-3.904-.2557L7.9308,195.3312,80.4402,64.0276c.3287-.4102,.7428-1.0912,1.0902-1.7621,.3784-.7308,.6287-1.5202,.766-2.3316l.1962-1.2817c.2032-2.1874,.1812-4.2678-1.2339-6.3053-.1039-.1495-.2871-.4161-.5864-.8377-.2254-.3175-.4922-.6127-.786-.8681l-.5102-.4434c-.6008-.5366-.7677-.6-1.4648-1.0036-.1981-.1147-.3922-.221-.5561-.2976-1.0354-.4834-2.1417-.8002-3.2758-.9401l-.1097-.0135c-1.0589-.1307-2.1393-.069-3.1761,.183-2.2349,.5432-2.7449,.7746-4.399,2.025l-2.0836,2.1576-6.0099,6.9543L-24.6922,172.9531c-2.5184,2.9161-4.8515,5.9912-6.9114,9.2473-.7642,1.2079-1.4718,2.4097-1.9555,3.4074-1.6012,3.3025-2.6299,6.0328-3.4205,9.5366-2.4553,10.8823-.4181,21.5051,.4832,24.9761,1.1661,4.491,25.1501,61.8653,32.6519,79.622,1.2232,2.8954,6.9149,16.5964,8.7865,21.7307l.9604,2.6913c.2378,.7748,.6251,2.02,1.0136,3.2646,.9782,3.1342,1.5902,6.3745,1.7798,9.6523,.0726,1.2545,.1151,6.037,.0718,6.8592l-.4366,6.6574-.4446,4.5203Z"/></g><g><path class="e" d="M46.3962,50.2632l7.2904-3.6186c3.2232-1.9726,5.965-3.9602,8.8177-6.7829l2.8607-3.1882c1.544-1.93,3.1045-4.7113,3.7806-7.1903l.3645-1.6588c.0873-.3165,.1601-.8163,.2192-1.3646,.1848-1.712,.117-2.8903-.075-4.6219l-.1743-1.1214c-.436-2.1159-1.4571-3.8642-2.9648-5.5954-.092-.1056-.1902-.2094-.2894-.3083h0c-.6132-.612-1.2594-1.1938-1.9679-1.6925-1.0132-.7134-2.1006-1.2916-3.3181-1.565h0c-1.802-.4045-3.6749-.3708-5.4611,.0985l-.3817,.1003c-.9401,.247-1.8184,.687-2.579,1.292l-1.4126,1.1236c-.5223,.4155-1.0061,.8771-1.4456,1.3794l-3.2635,3.1822"/><path class="e" d="M47.8123,50.3108l-6.9427-3.6663c-3.2232-1.9726-5.965-3.9602-8.8177-6.7829l-2.8607-3.1882c-1.544-1.93-3.1045-4.7113-3.7806-7.1903l-.3645-1.6588c-.0873-.3165-.16-.8163-.2192-1.3646-.1848-1.712-.117-2.8903,.075-4.6219l.1743-1.1214c.436-2.1159,1.4571-3.8642,2.9648-5.5954,.092-.1056,.1902-.2094,.2894-.3083,.6134-.6122,1.2598-1.1941,1.9685-1.693,1.013-.7131,2.1002-1.2912,3.3174-1.5645h0c1.802-.4045,3.6749-.3708,5.4611,.0985l.0603,.0158c1.4827,.2782,3.9047,2.1104,3.9047,2.1104,.5223,.4155,2.7406,2.173,3.1801,2.6752l2.1923,2.1211"/></g></g><polyline class="e" points="35.2847 90.7923 2 90.7923 2 2 90.7923 2 90.7923 90.7923 35.2847 90.7923"/></g></g></svg>