<svg id="rainbow_neutral" xmlns="http://www.w3.org/2000/svg" width="234.818" height="150.116" viewBox="0 0 234.818 150.116">
  <path id="Path_254" data-name="Path 254" d="M56.477,98.706a56.517,56.517,0,0,1,113.034,0" fill="none" stroke="#fff" stroke-miterlimit="10" stroke-width="8"/>
  <path id="Path_255" data-name="Path 255" d="M39.234,98.466a74.239,74.239,0,0,1,148.477,0" fill="none" stroke="#fff" stroke-miterlimit="10" stroke-width="8"/>
  <path id="Path_256" data-name="Path 256" d="M75.635,102.777c0-25.864,16.925-42.389,37.827-42.276,23.479.127,37.848,22.331,37.848,43.234" fill="none" stroke="#fff" stroke-miterlimit="10" stroke-width="8"/>
  <path id="Path_257" data-name="Path 257" d="M210.761,102.743a21.689,21.689,0,0,0-4.832.562,29.052,29.052,0,0,0-38.673-.961,21.673,21.673,0,0,0-5.968-.83c-11.077,0-20.057,8.258-20.057,18.444s8.98,18.445,20.057,18.445a21.7,21.7,0,0,0,4.757-.544,29.042,29.042,0,0,0,38.983,1,21.665,21.665,0,0,0,5.733.775c11.077,0,20.057-8.258,20.057-18.445s-8.98-18.445-20.057-18.445h0Z" fill="none" stroke="#fff" stroke-miterlimit="10" stroke-width="8"/>
  <path id="Path_258" data-name="Path 258" d="M20.534,99.084a95.084,95.084,0,0,1,190.167,0" fill="none" stroke="#fff" stroke-miterlimit="10" stroke-width="8"/>
  <path id="Path_259" data-name="Path 259" d="M73.529,102.976a21.689,21.689,0,0,0-4.832.562,29.052,29.052,0,0,0-38.673-.961,21.673,21.673,0,0,0-5.968-.83C12.98,101.746,4,110,4,120.191s8.98,18.445,20.056,18.445a21.7,21.7,0,0,0,4.757-.544,29.042,29.042,0,0,0,38.983,1,21.665,21.665,0,0,0,5.733.775c11.077,0,20.056-8.258,20.056-18.445s-8.98-18.445-20.057-18.445h0Z" fill="none" stroke="#fff" stroke-miterlimit="10" stroke-width="8"/>
</svg>
