<?xml version="1.0" encoding="UTF-8"?><svg id="a" xmlns="http://www.w3.org/2000/svg" width="1920" height="1080" viewBox="0 0 1920 1080"><defs><style>.n{isolation:isolate;}.o{fill:#120a2d;}.p{fill:#2d1c67;}</style></defs><g><rect class="o" x=".5" y=".5" width="1919" height="1079"/><path d="M1919,1V1079H1V1H1919m1-1H0V1080H1920V0h0Z"/></g><g><g id="b" class="n"><g class="n"><path class="p" d="M199.2632,307.21v33.4473c28.5645-.4062,52.2461-1.2207,71.0449-2.4414l1.2207,15.7471c-42.9688,2.5234-96.1113,3.7842-159.4238,3.7842l-1.8311-15.9912c21.5645,0,45.166-.2842,70.8008-.8545v-33.4473c-16.1133-1.4648-28.4844-6.123-37.1094-13.9775-8.627-7.8525-12.9395-17.4346-12.9395-28.7471,0-12.6953,5.2891-23.0908,15.8691-31.1885,10.5781-8.0977,25.0645-12.1465,43.457-12.1465,18.1465,0,32.5107,3.9668,43.0908,11.9023,10.5781,7.9336,15.8691,18.0049,15.8691,30.2119,0,11.9629-4.3755,21.8711-13.1226,29.7236-8.749,7.8545-21.0571,12.5127-36.9263,13.9775Zm-17.9443-144.5312h17.9443v30.7617h61.2793v16.2354H119.7954v-16.2354h61.5234v-30.7617Zm9.0332,74.2188c-12.6953,0-22.7051,2.584-30.0293,7.751-7.3242,5.1689-10.9863,11.8623-10.9863,20.0811s3.6411,14.8525,10.9253,19.8975c7.2822,5.0469,17.313,7.5684,30.0903,7.5684,12.6133,0,22.562-2.543,29.8462-7.6289,7.2822-5.0859,10.9253-11.6982,10.9253-19.8369,0-8.2188-3.6621-14.9121-10.9863-20.0811-7.3242-5.167-17.2539-7.751-29.7852-7.751Zm111.9385,46.0205v114.2578h-18.1885V161.7021h18.1885v104.9805h36.2549v16.2354h-36.2549Z"/></g><g class="n"><path class="p" d="M187.3003,624.7275c-17.9043,0-32.3696-7.2217-43.396-21.667-11.0283-14.4453-16.5405-33.9971-16.5405-58.6553,0-24.9824,5.4512-44.5957,16.3574-58.8379,10.9043-14.2402,25.4307-21.3623,43.5791-21.3623,18.0664,0,32.6328,7.1221,43.7012,21.3623,11.0664,14.2422,16.6016,33.8555,16.6016,58.8379,0,24.8223-5.5542,44.4141-16.6626,58.7764-11.1084,14.3643-25.6558,21.5459-43.6401,21.5459Zm0-144.2871c-12.5332,0-22.7051,5.8398-30.5176,17.5166-7.8125,11.6787-11.7188,27.1611-11.7188,46.4482,0,19.207,3.9463,34.6885,11.8408,46.4482,7.8926,11.7598,18.0244,17.6387,30.3955,17.6387,12.2871,0,22.3999-5.8994,30.3345-17.7002,7.9346-11.7988,11.9019-27.2617,11.9019-46.3867,0-19.3672-3.8872-34.8701-11.6577-46.5088-7.7725-11.6367-17.9653-17.4561-30.5786-17.4561Zm104.0039,203.7354v-235.4736h18.3105v235.4736h-18.3105Z"/></g><g class="n"><path class="p" d="M159.1021,809.1885v30.7617h16.1133c38.4922,0,67.4229-.7324,86.792-2.1973l1.0986,15.5029c-29.2969,1.9531-70.0684,2.9297-122.3145,2.9297v-108.2764h113.0371v16.2354h-94.7266v29.2969h82.7637v15.7471h-82.7637Zm76.416,158.8135c-24.5781,0-43.5791-4.0088-57.0068-12.0234-13.4277-8.0156-20.1416-18.6162-20.1416-31.7998s6.7139-23.7617,20.1416-31.7383c13.4277-7.9746,32.4287-11.9629,57.0068-11.9629,24.7383,0,43.8423,3.9678,57.312,11.9014,13.4678,7.9355,20.2026,18.5361,20.2026,31.7998,0,13.3477-6.7139,23.9873-20.1416,31.9209-13.4277,7.9355-32.5527,11.9023-57.373,11.9023Zm0-72.0215c-18.6367,0-32.9189,2.5439-42.8467,7.6289-9.9297,5.0869-14.8926,11.9443-14.8926,20.5693,0,8.5449,4.9229,15.4014,14.7705,20.5693,9.8457,5.167,24.1699,7.751,42.9688,7.751,19.043,0,33.5273-2.584,43.457-7.751,9.9277-5.168,14.8926-12.0244,14.8926-20.5693,0-8.625-5.0049-15.4824-15.0146-20.5693-10.0098-5.085-24.4561-7.6289-43.335-7.6289Zm55.2979-15.9912v-144.2871h18.3105v144.2871h-18.3105Z"/></g></g><g transform="matrix(1, 0, 0, 1, 0, 0)"><g id="c" class="n"><g class="n"><path class="p" d="M199.2632,307.21v33.4473c28.5645-.4062,52.2461-1.2207,71.0449-2.4414l1.2207,15.7471c-42.9688,2.5234-96.1113,3.7842-159.4238,3.7842l-1.8311-15.9912c21.5645,0,45.166-.2842,70.8008-.8545v-33.4473c-16.1133-1.4648-28.4844-6.123-37.1094-13.9775-8.627-7.8525-12.9395-17.4346-12.9395-28.7471,0-12.6953,5.2891-23.0908,15.8691-31.1885,10.5781-8.0977,25.0645-12.1465,43.457-12.1465,18.1465,0,32.5107,3.9668,43.0908,11.9023,10.5781,7.9336,15.8691,18.0049,15.8691,30.2119,0,11.9629-4.3755,21.8711-13.1226,29.7236-8.749,7.8545-21.0571,12.5127-36.9263,13.9775Zm-17.9443-144.5312h17.9443v30.7617h61.2793v16.2354H119.7954v-16.2354h61.5234v-30.7617Zm9.0332,74.2188c-12.6953,0-22.7051,2.584-30.0293,7.751-7.3242,5.1689-10.9863,11.8623-10.9863,20.0811s3.6411,14.8525,10.9253,19.8975c7.2822,5.0469,17.313,7.5684,30.0903,7.5684,12.6133,0,22.562-2.543,29.8462-7.6289,7.2822-5.0859,10.9253-11.6982,10.9253-19.8369,0-8.2188-3.6621-14.9121-10.9863-20.0811-7.3242-5.167-17.2539-7.751-29.7852-7.751Zm111.9385,46.0205v114.2578h-18.1885V161.7021h18.1885v104.9805h36.2549v16.2354h-36.2549Z"/></g><g class="n"><path class="p" d="M187.3003,624.7275c-17.9043,0-32.3696-7.2217-43.396-21.667-11.0283-14.4453-16.5405-33.9971-16.5405-58.6553,0-24.9824,5.4512-44.5957,16.3574-58.8379,10.9043-14.2402,25.4307-21.3623,43.5791-21.3623,18.0664,0,32.6328,7.1221,43.7012,21.3623,11.0664,14.2422,16.6016,33.8555,16.6016,58.8379,0,24.8223-5.5542,44.4141-16.6626,58.7764-11.1084,14.3643-25.6558,21.5459-43.6401,21.5459Zm0-144.2871c-12.5332,0-22.7051,5.8398-30.5176,17.5166-7.8125,11.6787-11.7188,27.1611-11.7188,46.4482,0,19.207,3.9463,34.6885,11.8408,46.4482,7.8926,11.7598,18.0244,17.6387,30.3955,17.6387,12.2871,0,22.3999-5.8994,30.3345-17.7002,7.9346-11.7988,11.9019-27.2617,11.9019-46.3867,0-19.3672-3.8872-34.8701-11.6577-46.5088-7.7725-11.6367-17.9653-17.4561-30.5786-17.4561Zm104.0039,203.7354v-235.4736h18.3105v235.4736h-18.3105Z"/></g><g class="n"><path class="p" d="M159.1021,809.1885v30.7617h16.1133c38.4922,0,67.4229-.7324,86.792-2.1973l1.0986,15.5029c-29.2969,1.9531-70.0684,2.9297-122.3145,2.9297v-108.2764h113.0371v16.2354h-94.7266v29.2969h82.7637v15.7471h-82.7637Zm76.416,158.8135c-24.5781,0-43.5791-4.0088-57.0068-12.0234-13.4277-8.0156-20.1416-18.6162-20.1416-31.7998s6.7139-23.7617,20.1416-31.7383c13.4277-7.9746,32.4287-11.9629,57.0068-11.9629,24.7383,0,43.8423,3.9678,57.312,11.9014,13.4678,7.9355,20.2026,18.5361,20.2026,31.7998,0,13.3477-6.7139,23.9873-20.1416,31.9209-13.4277,7.9355-32.5527,11.9023-57.373,11.9023Zm0-72.0215c-18.6367,0-32.9189,2.5439-42.8467,7.6289-9.9297,5.0869-14.8926,11.9443-14.8926,20.5693,0,8.5449,4.9229,15.4014,14.7705,20.5693,9.8457,5.167,24.1699,7.751,42.9688,7.751,19.043,0,33.5273-2.584,43.457-7.751,9.9277-5.168,14.8926-12.0244,14.8926-20.5693,0-8.625-5.0049-15.4824-15.0146-20.5693-10.0098-5.085-24.4561-7.6289-43.335-7.6289Zm55.2979-15.9912v-144.2871h18.3105v144.2871h-18.3105Z"/></g></g></g></g><g><g id="d" class="n"><g class="n"><path class="p" d="M489.2632,213.2104v33.4473c28.5645-.4062,52.2461-1.2207,71.0449-2.4414l1.2207,15.7471c-42.9688,2.5234-96.1113,3.7842-159.4238,3.7842l-1.8311-15.9912c21.5645,0,45.166-.2842,70.8008-.8545v-33.4473c-16.1133-1.4648-28.4844-6.123-37.1094-13.9775-8.627-7.8525-12.9395-17.4346-12.9395-28.7471,0-12.6953,5.2891-23.0908,15.8691-31.1885,10.5781-8.0977,25.0645-12.1465,43.457-12.1465,18.1465,0,32.5107,3.9668,43.0908,11.9023,10.5781,7.9336,15.8691,18.0049,15.8691,30.2119,0,11.9629-4.3755,21.8711-13.1226,29.7236-8.749,7.8545-21.0571,12.5127-36.9263,13.9775Zm-17.9443-144.5312h17.9443v30.7617h61.2793v16.2354h-140.7471v-16.2354h61.5234v-30.7617Zm9.0332,74.2188c-12.6953,0-22.7051,2.584-30.0293,7.751-7.3242,5.1689-10.9863,11.8623-10.9863,20.0811s3.6411,14.8525,10.9253,19.8975c7.2822,5.0469,17.313,7.5684,30.0903,7.5684,12.6133,0,22.562-2.543,29.8462-7.6289,7.2822-5.0859,10.9253-11.6982,10.9253-19.8369,0-8.2188-3.6621-14.9121-10.9863-20.0811-7.3242-5.167-17.2539-7.751-29.7852-7.751Zm111.9385,46.0205v114.2578h-18.1885V67.7026h18.1885v104.9805h36.2549v16.2354h-36.2549Z"/></g><g class="n"><path class="p" d="M477.3003,530.728c-17.9043,0-32.3696-7.2217-43.396-21.667-11.0283-14.4453-16.5405-33.9971-16.5405-58.6553,0-24.9824,5.4512-44.5957,16.3574-58.8379,10.9043-14.2402,25.4307-21.3623,43.5791-21.3623,18.0664,0,32.6328,7.1221,43.7012,21.3623,11.0664,14.2422,16.6016,33.8555,16.6016,58.8379,0,24.8223-5.5542,44.4141-16.6626,58.7764-11.1084,14.3643-25.6558,21.5459-43.6401,21.5459Zm0-144.2871c-12.5332,0-22.7051,5.8398-30.5176,17.5166-7.8125,11.6787-11.7188,27.1611-11.7188,46.4482,0,19.207,3.9463,34.6885,11.8408,46.4482,7.8926,11.7598,18.0244,17.6387,30.3955,17.6387,12.2871,0,22.3999-5.8994,30.3345-17.7002,7.9346-11.7988,11.9019-27.2617,11.9019-46.3867,0-19.3672-3.8872-34.8701-11.6577-46.5088-7.7725-11.6367-17.9653-17.4561-30.5786-17.4561Zm104.0039,203.7349v-235.4731h18.3105v235.4731h-18.3105Z"/></g><g class="n"><path class="p" d="M449.1021,715.1895v30.7617h16.1133c38.4922,0,67.4229-.7324,86.792-2.1973l1.0986,15.502c-29.2969,1.9531-70.0684,2.9297-122.3145,2.9297v-108.2754h113.0371v16.2344h-94.7266v29.2969h82.7637v15.748h-82.7637Zm76.416,158.8125c-24.5781,0-43.5791-4.0078-57.0068-12.0234s-20.1416-18.6152-20.1416-31.7988,6.7139-23.7617,20.1416-31.7383c13.4277-7.9746,32.4287-11.9629,57.0068-11.9629,24.7383,0,43.8423,3.9668,57.312,11.9004,13.4678,7.9355,20.2026,18.5371,20.2026,31.8008,0,13.3477-6.7139,23.9863-20.1416,31.9199-13.4277,7.9355-32.5527,11.9023-57.373,11.9023Zm0-72.0215c-18.6367,0-32.9189,2.5449-42.8467,7.6289-9.9297,5.0879-14.8926,11.9453-14.8926,20.5703,0,8.5449,4.9229,15.4004,14.7705,20.5684,9.8457,5.168,24.1699,7.752,42.9688,7.752,19.043,0,33.5273-2.584,43.457-7.752,9.9277-5.168,14.8926-12.0234,14.8926-20.5684,0-8.625-5.0049-15.4824-15.0146-20.5703-10.0098-5.084-24.4561-7.6289-43.335-7.6289Zm55.2979-15.9902v-144.2871h18.3105v144.2871h-18.3105Z"/></g></g><g transform="matrix(1, 0, 0, 1, 0, 0)"><g id="e" class="n"><g class="n"><path class="p" d="M489.2632,213.2104v33.4473c28.5645-.4062,52.2461-1.2207,71.0449-2.4414l1.2207,15.7471c-42.9688,2.5234-96.1113,3.7842-159.4238,3.7842l-1.8311-15.9912c21.5645,0,45.166-.2842,70.8008-.8545v-33.4473c-16.1133-1.4648-28.4844-6.123-37.1094-13.9775-8.627-7.8525-12.9395-17.4346-12.9395-28.7471,0-12.6953,5.2891-23.0908,15.8691-31.1885,10.5781-8.0977,25.0645-12.1465,43.457-12.1465,18.1465,0,32.5107,3.9668,43.0908,11.9023,10.5781,7.9336,15.8691,18.0049,15.8691,30.2119,0,11.9629-4.3755,21.8711-13.1226,29.7236-8.749,7.8545-21.0571,12.5127-36.9263,13.9775Zm-17.9443-144.5312h17.9443v30.7617h61.2793v16.2354h-140.7471v-16.2354h61.5234v-30.7617Zm9.0332,74.2188c-12.6953,0-22.7051,2.584-30.0293,7.751-7.3242,5.1689-10.9863,11.8623-10.9863,20.0811s3.6411,14.8525,10.9253,19.8975c7.2822,5.0469,17.313,7.5684,30.0903,7.5684,12.6133,0,22.562-2.543,29.8462-7.6289,7.2822-5.0859,10.9253-11.6982,10.9253-19.8369,0-8.2188-3.6621-14.9121-10.9863-20.0811-7.3242-5.167-17.2539-7.751-29.7852-7.751Zm111.9385,46.0205v114.2578h-18.1885V67.7026h18.1885v104.9805h36.2549v16.2354h-36.2549Z"/></g><g class="n"><path class="p" d="M477.3003,530.728c-17.9043,0-32.3696-7.2217-43.396-21.667-11.0283-14.4453-16.5405-33.9971-16.5405-58.6553,0-24.9824,5.4512-44.5957,16.3574-58.8379,10.9043-14.2402,25.4307-21.3623,43.5791-21.3623,18.0664,0,32.6328,7.1221,43.7012,21.3623,11.0664,14.2422,16.6016,33.8555,16.6016,58.8379,0,24.8223-5.5542,44.4141-16.6626,58.7764-11.1084,14.3643-25.6558,21.5459-43.6401,21.5459Zm0-144.2871c-12.5332,0-22.7051,5.8398-30.5176,17.5166-7.8125,11.6787-11.7188,27.1611-11.7188,46.4482,0,19.207,3.9463,34.6885,11.8408,46.4482,7.8926,11.7598,18.0244,17.6387,30.3955,17.6387,12.2871,0,22.3999-5.8994,30.3345-17.7002,7.9346-11.7988,11.9019-27.2617,11.9019-46.3867,0-19.3672-3.8872-34.8701-11.6577-46.5088-7.7725-11.6367-17.9653-17.4561-30.5786-17.4561Zm104.0039,203.7349v-235.4731h18.3105v235.4731h-18.3105Z"/></g><g class="n"><path class="p" d="M449.1021,715.1895v30.7617h16.1133c38.4922,0,67.4229-.7324,86.792-2.1973l1.0986,15.502c-29.2969,1.9531-70.0684,2.9297-122.3145,2.9297v-108.2754h113.0371v16.2344h-94.7266v29.2969h82.7637v15.748h-82.7637Zm76.416,158.8125c-24.5781,0-43.5791-4.0078-57.0068-12.0234s-20.1416-18.6152-20.1416-31.7988,6.7139-23.7617,20.1416-31.7383c13.4277-7.9746,32.4287-11.9629,57.0068-11.9629,24.7383,0,43.8423,3.9668,57.312,11.9004,13.4678,7.9355,20.2026,18.5371,20.2026,31.8008,0,13.3477-6.7139,23.9863-20.1416,31.9199-13.4277,7.9355-32.5527,11.9023-57.373,11.9023Zm0-72.0215c-18.6367,0-32.9189,2.5449-42.8467,7.6289-9.9297,5.0879-14.8926,11.9453-14.8926,20.5703,0,8.5449,4.9229,15.4004,14.7705,20.5684,9.8457,5.168,24.1699,7.752,42.9688,7.752,19.043,0,33.5273-2.584,43.457-7.752,9.9277-5.168,14.8926-12.0234,14.8926-20.5684,0-8.625-5.0049-15.4824-15.0146-20.5703-10.0098-5.084-24.4561-7.6289-43.335-7.6289Zm55.2979-15.9902v-144.2871h18.3105v144.2871h-18.3105Z"/></g></g></g></g><g><g id="f" class="n"><g class="n"><path class="p" d="M767.2632,329.2104v33.4473c28.5645-.4062,52.2461-1.2207,71.0449-2.4414l1.2207,15.7471c-42.9688,2.5234-96.1113,3.7842-159.4238,3.7842l-1.8311-15.9912c21.5645,0,45.166-.2842,70.8008-.8545v-33.4473c-16.1133-1.4648-28.4844-6.123-37.1094-13.9775-8.627-7.8525-12.9395-17.4346-12.9395-28.7471,0-12.6953,5.2891-23.0908,15.8691-31.1885,10.5781-8.0977,25.0645-12.1465,43.457-12.1465,18.1465,0,32.5107,3.9668,43.0908,11.9023,10.5781,7.9336,15.8691,18.0049,15.8691,30.2119,0,11.9629-4.3755,21.8711-13.1226,29.7236-8.749,7.8545-21.0571,12.5127-36.9263,13.9775Zm-17.9443-144.5312h17.9443v30.7617h61.2793v16.2354h-140.7471v-16.2354h61.5234v-30.7617Zm9.0332,74.2188c-12.6953,0-22.7051,2.584-30.0293,7.751-7.3242,5.1689-10.9863,11.8623-10.9863,20.0811s3.6411,14.8525,10.9253,19.8975c7.2822,5.0469,17.313,7.5684,30.0903,7.5684,12.6133,0,22.562-2.543,29.8462-7.6289,7.2822-5.0859,10.9253-11.6982,10.9253-19.8369,0-8.2188-3.6621-14.9121-10.9863-20.0811-7.3242-5.167-17.2539-7.751-29.7852-7.751Zm111.9385,46.0205v114.2578h-18.1885V183.7026h18.1885v104.9805h36.2549v16.2354h-36.2549Z"/></g><g class="n"><path class="p" d="M755.3003,646.7285c-17.9043,0-32.3696-7.2217-43.396-21.667-11.0283-14.4453-16.5405-33.9971-16.5405-58.6553,0-24.9824,5.4512-44.5962,16.3574-58.8384,10.9043-14.2402,25.4307-21.3623,43.5791-21.3623,18.0664,0,32.6328,7.1221,43.7012,21.3623,11.0664,14.2422,16.6016,33.856,16.6016,58.8384,0,24.8223-5.5542,44.4141-16.6626,58.7764-11.1084,14.3643-25.6558,21.5459-43.6401,21.5459Zm0-144.2876c-12.5332,0-22.7051,5.8398-30.5176,17.5166-7.8125,11.6787-11.7188,27.1616-11.7188,46.4487,0,19.207,3.9463,34.6885,11.8408,46.4482,7.8926,11.7598,18.0244,17.6387,30.3955,17.6387,12.2871,0,22.3999-5.8994,30.3345-17.7002,7.9346-11.7988,11.9019-27.2617,11.9019-46.3867,0-19.3672-3.8872-34.8706-11.6577-46.5093-7.7725-11.6367-17.9653-17.4561-30.5786-17.4561Zm104.0039,203.7358v-235.4741h18.3105v235.4741h-18.3105Z"/></g><g class="n"><path class="p" d="M727.1021,831.1895v30.7617h16.1133c38.4922,0,67.4229-.7324,86.792-2.1973l1.0986,15.5029c-29.2969,1.9531-70.0684,2.9297-122.3145,2.9297v-108.2764h113.0371v16.2354h-94.7266v29.2969h82.7637v15.7471h-82.7637Zm76.416,158.8135c-24.5781,0-43.5791-4.0088-57.0068-12.0234-13.4277-8.0156-20.1416-18.6162-20.1416-31.7998s6.7139-23.7617,20.1416-31.7383c13.4277-7.9746,32.4287-11.9629,57.0068-11.9629,24.7383,0,43.8423,3.9678,57.312,11.9014,13.4678,7.9355,20.2026,18.5361,20.2026,31.7998,0,13.3477-6.7139,23.9873-20.1416,31.9209-13.4277,7.9355-32.5527,11.9023-57.373,11.9023Zm0-72.0215c-18.6367,0-32.9189,2.5439-42.8467,7.6289-9.9297,5.0869-14.8926,11.9443-14.8926,20.5693,0,8.5449,4.9229,15.4014,14.7705,20.5693,9.8457,5.167,24.1699,7.751,42.9688,7.751,19.043,0,33.5273-2.584,43.457-7.751,9.9277-5.168,14.8926-12.0244,14.8926-20.5693,0-8.625-5.0049-15.4824-15.0146-20.5693-10.0098-5.085-24.4561-7.6289-43.335-7.6289Zm55.2979-15.9912v-144.2871h18.3105v144.2871h-18.3105Z"/></g></g><g transform="matrix(1, 0, 0, 1, 0, 0)"><g id="g" class="n"><g class="n"><path class="p" d="M767.2632,329.2104v33.4473c28.5645-.4062,52.2461-1.2207,71.0449-2.4414l1.2207,15.7471c-42.9688,2.5234-96.1113,3.7842-159.4238,3.7842l-1.8311-15.9912c21.5645,0,45.166-.2842,70.8008-.8545v-33.4473c-16.1133-1.4648-28.4844-6.123-37.1094-13.9775-8.627-7.8525-12.9395-17.4346-12.9395-28.7471,0-12.6953,5.2891-23.0908,15.8691-31.1885,10.5781-8.0977,25.0645-12.1465,43.457-12.1465,18.1465,0,32.5107,3.9668,43.0908,11.9023,10.5781,7.9336,15.8691,18.0049,15.8691,30.2119,0,11.9629-4.3755,21.8711-13.1226,29.7236-8.749,7.8545-21.0571,12.5127-36.9263,13.9775Zm-17.9443-144.5312h17.9443v30.7617h61.2793v16.2354h-140.7471v-16.2354h61.5234v-30.7617Zm9.0332,74.2188c-12.6953,0-22.7051,2.584-30.0293,7.751-7.3242,5.1689-10.9863,11.8623-10.9863,20.0811s3.6411,14.8525,10.9253,19.8975c7.2822,5.0469,17.313,7.5684,30.0903,7.5684,12.6133,0,22.562-2.543,29.8462-7.6289,7.2822-5.0859,10.9253-11.6982,10.9253-19.8369,0-8.2188-3.6621-14.9121-10.9863-20.0811-7.3242-5.167-17.2539-7.751-29.7852-7.751Zm111.9385,46.0205v114.2578h-18.1885V183.7026h18.1885v104.9805h36.2549v16.2354h-36.2549Z"/></g><g class="n"><path class="p" d="M755.3003,646.7285c-17.9043,0-32.3696-7.2217-43.396-21.667-11.0283-14.4453-16.5405-33.9971-16.5405-58.6553,0-24.9824,5.4512-44.5962,16.3574-58.8384,10.9043-14.2402,25.4307-21.3623,43.5791-21.3623,18.0664,0,32.6328,7.1221,43.7012,21.3623,11.0664,14.2422,16.6016,33.856,16.6016,58.8384,0,24.8223-5.5542,44.4141-16.6626,58.7764-11.1084,14.3643-25.6558,21.5459-43.6401,21.5459Zm0-144.2876c-12.5332,0-22.7051,5.8398-30.5176,17.5166-7.8125,11.6787-11.7188,27.1616-11.7188,46.4487,0,19.207,3.9463,34.6885,11.8408,46.4482,7.8926,11.7598,18.0244,17.6387,30.3955,17.6387,12.2871,0,22.3999-5.8994,30.3345-17.7002,7.9346-11.7988,11.9019-27.2617,11.9019-46.3867,0-19.3672-3.8872-34.8706-11.6577-46.5093-7.7725-11.6367-17.9653-17.4561-30.5786-17.4561Zm104.0039,203.7358v-235.4741h18.3105v235.4741h-18.3105Z"/></g><g class="n"><path class="p" d="M727.1021,831.1895v30.7617h16.1133c38.4922,0,67.4229-.7324,86.792-2.1973l1.0986,15.5029c-29.2969,1.9531-70.0684,2.9297-122.3145,2.9297v-108.2764h113.0371v16.2354h-94.7266v29.2969h82.7637v15.7471h-82.7637Zm76.416,158.8135c-24.5781,0-43.5791-4.0088-57.0068-12.0234-13.4277-8.0156-20.1416-18.6162-20.1416-31.7998s6.7139-23.7617,20.1416-31.7383c13.4277-7.9746,32.4287-11.9629,57.0068-11.9629,24.7383,0,43.8423,3.9678,57.312,11.9014,13.4678,7.9355,20.2026,18.5361,20.2026,31.7998,0,13.3477-6.7139,23.9873-20.1416,31.9209-13.4277,7.9355-32.5527,11.9023-57.373,11.9023Zm0-72.0215c-18.6367,0-32.9189,2.5439-42.8467,7.6289-9.9297,5.0869-14.8926,11.9443-14.8926,20.5693,0,8.5449,4.9229,15.4014,14.7705,20.5693,9.8457,5.167,24.1699,7.751,42.9688,7.751,19.043,0,33.5273-2.584,43.457-7.751,9.9277-5.168,14.8926-12.0244,14.8926-20.5693,0-8.625-5.0049-15.4824-15.0146-20.5693-10.0098-5.085-24.4561-7.6289-43.335-7.6289Zm55.2979-15.9912v-144.2871h18.3105v144.2871h-18.3105Z"/></g></g></g></g><g><g id="h" class="n"><g class="n"><path class="p" d="M1073.2637,213.21v33.4473c28.5645-.4062,52.2461-1.2207,71.0449-2.4414l1.2207,15.7471c-42.9688,2.5234-96.1113,3.7842-159.4238,3.7842l-1.832-15.9912c21.5645,0,45.166-.2842,70.8008-.8545v-33.4473c-16.1133-1.4648-28.4844-6.123-37.1094-13.9775-8.627-7.8525-12.9395-17.4346-12.9395-28.7471,0-12.6953,5.2891-23.0908,15.8691-31.1885,10.5781-8.0977,25.0645-12.1465,43.457-12.1465,18.1465,0,32.5117,3.9668,43.0918,11.9023,10.5781,7.9336,15.8691,18.0049,15.8691,30.2119,0,11.9629-4.376,21.8711-13.123,29.7236-8.749,7.8545-21.0566,12.5127-36.9258,13.9775Zm-17.9453-144.5312h17.9453v30.7617h61.2793v16.2354h-140.748v-16.2354h61.5234v-30.7617Zm9.0332,74.2188c-12.6953,0-22.7051,2.584-30.0293,7.751-7.3242,5.1689-10.9863,11.8623-10.9863,20.0811s3.6416,14.8525,10.9258,19.8975c7.2822,5.0469,17.3125,7.5684,30.0898,7.5684,12.6133,0,22.5625-2.543,29.8467-7.6289,7.2822-5.0859,10.9248-11.6982,10.9248-19.8369,0-8.2188-3.6621-14.9121-10.9863-20.0811-7.3242-5.167-17.2539-7.751-29.7852-7.751Zm111.9395,46.0205v114.2578h-18.1895V67.7021h18.1895v104.9805h36.2539v16.2354h-36.2539Z"/></g><g class="n"><path class="p" d="M1061.3008,530.7275c-17.9043,0-32.3701-7.2217-43.3965-21.667-11.0283-14.4453-16.541-33.9971-16.541-58.6553,0-24.9824,5.4512-44.5957,16.3574-58.8379,10.9043-14.2402,25.4316-21.3623,43.5801-21.3623,18.0664,0,32.6328,7.1221,43.7012,21.3623,11.0664,14.2422,16.6016,33.8555,16.6016,58.8379,0,24.8223-5.5547,44.4141-16.6631,58.7764-11.1084,14.3643-25.6553,21.5459-43.6396,21.5459Zm0-144.2871c-12.5332,0-22.7051,5.8398-30.5176,17.5166-7.8125,11.6787-11.7188,27.1611-11.7188,46.4482,0,19.207,3.9453,34.6885,11.8398,46.4482,7.8926,11.7598,18.0254,17.6387,30.3965,17.6387,12.2871,0,22.3994-5.8994,30.334-17.7002,7.9346-11.7988,11.9023-27.2617,11.9023-46.3867,0-19.3672-3.8877-34.8701-11.6582-46.5088-7.7725-11.6367-17.9648-17.4561-30.5781-17.4561Zm104.0039,203.7354v-235.4736h18.3105v235.4736h-18.3105Z"/></g><g class="n"><path class="p" d="M1033.1016,715.1885v30.7617h16.1133c38.4922,0,67.4238-.7324,86.793-2.1973l1.0977,15.5029c-29.2969,1.9531-70.0684,2.9297-122.3145,2.9297v-108.2764h113.0371v16.2354h-94.7266v29.2969h82.7637v15.7471h-82.7637Zm76.416,158.8135c-24.5781,0-43.5781-4.0088-57.0059-12.0234-13.4277-8.0156-20.1426-18.6162-20.1426-31.7998s6.7148-23.7617,20.1426-31.7383c13.4277-7.9746,32.4277-11.9629,57.0059-11.9629,24.7383,0,43.8428,3.9678,57.3125,11.9014,13.4678,7.9355,20.2031,18.5361,20.2031,31.7998,0,13.3477-6.7148,23.9873-20.1426,31.9209-13.4277,7.9355-32.5527,11.9023-57.373,11.9023Zm0-72.0215c-18.6367,0-32.918,2.5439-42.8457,7.6289-9.9297,5.0869-14.8926,11.9443-14.8926,20.5693,0,8.5449,4.9219,15.4014,14.7695,20.5693,9.8457,5.167,24.1699,7.751,42.9688,7.751,19.043,0,33.5273-2.584,43.457-7.751,9.9277-5.168,14.8926-12.0244,14.8926-20.5693,0-8.625-5.0039-15.4824-15.0137-20.5693-10.0098-5.085-24.457-7.6289-43.3359-7.6289Zm55.2988-15.9912v-144.2871h18.3105v144.2871h-18.3105Z"/></g></g><g transform="matrix(1, 0, 0, 1, 0, 0)"><g id="i" class="n"><g class="n"><path class="p" d="M1073.2637,213.21v33.4473c28.5645-.4062,52.2461-1.2207,71.0449-2.4414l1.2207,15.7471c-42.9688,2.5234-96.1113,3.7842-159.4238,3.7842l-1.832-15.9912c21.5645,0,45.166-.2842,70.8008-.8545v-33.4473c-16.1133-1.4648-28.4844-6.123-37.1094-13.9775-8.627-7.8525-12.9395-17.4346-12.9395-28.7471,0-12.6953,5.2891-23.0908,15.8691-31.1885,10.5781-8.0977,25.0645-12.1465,43.457-12.1465,18.1465,0,32.5117,3.9668,43.0918,11.9023,10.5781,7.9336,15.8691,18.0049,15.8691,30.2119,0,11.9629-4.376,21.8711-13.123,29.7236-8.749,7.8545-21.0566,12.5127-36.9258,13.9775Zm-17.9453-144.5312h17.9453v30.7617h61.2793v16.2354h-140.748v-16.2354h61.5234v-30.7617Zm9.0332,74.2188c-12.6953,0-22.7051,2.584-30.0293,7.751-7.3242,5.1689-10.9863,11.8623-10.9863,20.0811s3.6416,14.8525,10.9258,19.8975c7.2822,5.0469,17.3125,7.5684,30.0898,7.5684,12.6133,0,22.5625-2.543,29.8467-7.6289,7.2822-5.0859,10.9248-11.6982,10.9248-19.8369,0-8.2188-3.6621-14.9121-10.9863-20.0811-7.3242-5.167-17.2539-7.751-29.7852-7.751Zm111.9395,46.0205v114.2578h-18.1895V67.7021h18.1895v104.9805h36.2539v16.2354h-36.2539Z"/></g><g class="n"><path class="p" d="M1061.3008,530.7275c-17.9043,0-32.3701-7.2217-43.3965-21.667-11.0283-14.4453-16.541-33.9971-16.541-58.6553,0-24.9824,5.4512-44.5957,16.3574-58.8379,10.9043-14.2402,25.4316-21.3623,43.5801-21.3623,18.0664,0,32.6328,7.1221,43.7012,21.3623,11.0664,14.2422,16.6016,33.8555,16.6016,58.8379,0,24.8223-5.5547,44.4141-16.6631,58.7764-11.1084,14.3643-25.6553,21.5459-43.6396,21.5459Zm0-144.2871c-12.5332,0-22.7051,5.8398-30.5176,17.5166-7.8125,11.6787-11.7188,27.1611-11.7188,46.4482,0,19.207,3.9453,34.6885,11.8398,46.4482,7.8926,11.7598,18.0254,17.6387,30.3965,17.6387,12.2871,0,22.3994-5.8994,30.334-17.7002,7.9346-11.7988,11.9023-27.2617,11.9023-46.3867,0-19.3672-3.8877-34.8701-11.6582-46.5088-7.7725-11.6367-17.9648-17.4561-30.5781-17.4561Zm104.0039,203.7354v-235.4736h18.3105v235.4736h-18.3105Z"/></g><g class="n"><path class="p" d="M1033.1016,715.1885v30.7617h16.1133c38.4922,0,67.4238-.7324,86.793-2.1973l1.0977,15.5029c-29.2969,1.9531-70.0684,2.9297-122.3145,2.9297v-108.2764h113.0371v16.2354h-94.7266v29.2969h82.7637v15.7471h-82.7637Zm76.416,158.8135c-24.5781,0-43.5781-4.0088-57.0059-12.0234-13.4277-8.0156-20.1426-18.6162-20.1426-31.7998s6.7148-23.7617,20.1426-31.7383c13.4277-7.9746,32.4277-11.9629,57.0059-11.9629,24.7383,0,43.8428,3.9678,57.3125,11.9014,13.4678,7.9355,20.2031,18.5361,20.2031,31.7998,0,13.3477-6.7148,23.9873-20.1426,31.9209-13.4277,7.9355-32.5527,11.9023-57.373,11.9023Zm0-72.0215c-18.6367,0-32.918,2.5439-42.8457,7.6289-9.9297,5.0869-14.8926,11.9443-14.8926,20.5693,0,8.5449,4.9219,15.4014,14.7695,20.5693,9.8457,5.167,24.1699,7.751,42.9688,7.751,19.043,0,33.5273-2.584,43.457-7.751,9.9277-5.168,14.8926-12.0244,14.8926-20.5693,0-8.625-5.0039-15.4824-15.0137-20.5693-10.0098-5.085-24.457-7.6289-43.3359-7.6289Zm55.2988-15.9912v-144.2871h18.3105v144.2871h-18.3105Z"/></g></g></g></g><g><g id="j" class="n"><g class="n"><path class="p" d="M1344.2637,329.2104v33.4473c28.5645-.4062,52.2461-1.2207,71.0449-2.4414l1.2207,15.7471c-42.9688,2.5234-96.1113,3.7842-159.4238,3.7842l-1.8311-15.9912c21.5645,0,45.166-.2842,70.8008-.8545v-33.4473c-16.1133-1.4648-28.4844-6.123-37.1094-13.9775-8.627-7.8525-12.9395-17.4346-12.9395-28.7471,0-12.6953,5.2891-23.0908,15.8691-31.1885,10.5781-8.0977,25.0645-12.1465,43.457-12.1465,18.1465,0,32.5107,3.9668,43.0908,11.9023,10.5781,7.9336,15.8691,18.0049,15.8691,30.2119,0,11.9629-4.376,21.8711-13.123,29.7236-8.749,7.8545-21.0566,12.5127-36.9258,13.9775Zm-17.9443-144.5312h17.9443v30.7617h61.2793v16.2354h-140.7471v-16.2354h61.5234v-30.7617Zm9.0332,74.2188c-12.6953,0-22.7051,2.584-30.0293,7.751-7.3242,5.1689-10.9863,11.8623-10.9863,20.0811s3.6406,14.8525,10.9248,19.8975c7.2822,5.0469,17.3135,7.5684,30.0908,7.5684,12.6133,0,22.5615-2.543,29.8457-7.6289,7.2822-5.0859,10.9258-11.6982,10.9258-19.8369,0-8.2188-3.6621-14.9121-10.9863-20.0811-7.3242-5.167-17.2539-7.751-29.7852-7.751Zm111.9385,46.0205v114.2578h-18.1885V183.7026h18.1885v104.9805h36.2549v16.2354h-36.2549Z"/></g><g class="n"><path class="p" d="M1332.3008,646.7275c-17.9043,0-32.3701-7.2217-43.3965-21.667-11.0283-14.4453-16.54-33.9971-16.54-58.6553,0-24.9824,5.4512-44.5952,16.3574-58.8374,10.9043-14.2402,25.4307-21.3623,43.5791-21.3623,18.0664,0,32.6328,7.1221,43.7012,21.3623,11.0664,14.2422,16.6016,33.855,16.6016,58.8374,0,24.8223-5.5547,44.4141-16.6631,58.7764-11.1084,14.3643-25.6553,21.5459-43.6396,21.5459Zm0-144.2866c-12.5332,0-22.7051,5.8398-30.5176,17.5166-7.8125,11.6787-11.7188,27.1606-11.7188,46.4478,0,19.207,3.9463,34.6885,11.8408,46.4482,7.8926,11.7598,18.0244,17.6387,30.3955,17.6387,12.2871,0,22.3994-5.8994,30.334-17.7002,7.9346-11.7988,11.9023-27.2617,11.9023-46.3867,0-19.3672-3.8877-34.8696-11.6582-46.5083-7.7725-11.6367-17.9648-17.4561-30.5781-17.4561Zm104.0039,203.7349v-235.4731h18.3105v235.4731h-18.3105Z"/></g><g class="n"><path class="p" d="M1304.1025,831.1885v30.7617h16.1133c38.4922,0,67.4229-.7324,86.792-2.1973l1.0986,15.5029c-29.2969,1.9531-70.0684,2.9297-122.3145,2.9297v-108.2764h113.0371v16.2354h-94.7266v29.2969h82.7637v15.7471h-82.7637Zm76.416,158.8135c-24.5781,0-43.5791-4.0088-57.0068-12.0234-13.4277-8.0156-20.1416-18.6162-20.1416-31.7998s6.7139-23.7617,20.1416-31.7383c13.4277-7.9746,32.4287-11.9629,57.0068-11.9629,24.7383,0,43.8418,3.9678,57.3115,11.9014,13.4678,7.9355,20.2031,18.5361,20.2031,31.7998,0,13.3477-6.7139,23.9873-20.1416,31.9209-13.4277,7.9355-32.5527,11.9023-57.373,11.9023Zm0-72.0215c-18.6367,0-32.9189,2.5439-42.8467,7.6289-9.9297,5.0869-14.8926,11.9443-14.8926,20.5693,0,8.5449,4.9229,15.4014,14.7705,20.5693,9.8457,5.167,24.1699,7.751,42.9688,7.751,19.043,0,33.5273-2.584,43.457-7.751,9.9277-5.168,14.8926-12.0244,14.8926-20.5693,0-8.625-5.0049-15.4824-15.0146-20.5693-10.0098-5.085-24.4561-7.6289-43.335-7.6289Zm55.2979-15.9912v-144.2871h18.3105v144.2871h-18.3105Z"/></g></g><g transform="matrix(1, 0, 0, 1, 0, 0)"><g id="k" class="n"><g class="n"><path class="p" d="M1344.2637,329.2104v33.4473c28.5645-.4062,52.2461-1.2207,71.0449-2.4414l1.2207,15.7471c-42.9688,2.5234-96.1113,3.7842-159.4238,3.7842l-1.8311-15.9912c21.5645,0,45.166-.2842,70.8008-.8545v-33.4473c-16.1133-1.4648-28.4844-6.123-37.1094-13.9775-8.627-7.8525-12.9395-17.4346-12.9395-28.7471,0-12.6953,5.2891-23.0908,15.8691-31.1885,10.5781-8.0977,25.0645-12.1465,43.457-12.1465,18.1465,0,32.5107,3.9668,43.0908,11.9023,10.5781,7.9336,15.8691,18.0049,15.8691,30.2119,0,11.9629-4.376,21.8711-13.123,29.7236-8.749,7.8545-21.0566,12.5127-36.9258,13.9775Zm-17.9443-144.5312h17.9443v30.7617h61.2793v16.2354h-140.7471v-16.2354h61.5234v-30.7617Zm9.0332,74.2188c-12.6953,0-22.7051,2.584-30.0293,7.751-7.3242,5.1689-10.9863,11.8623-10.9863,20.0811s3.6406,14.8525,10.9248,19.8975c7.2822,5.0469,17.3135,7.5684,30.0908,7.5684,12.6133,0,22.5615-2.543,29.8457-7.6289,7.2822-5.0859,10.9258-11.6982,10.9258-19.8369,0-8.2188-3.6621-14.9121-10.9863-20.0811-7.3242-5.167-17.2539-7.751-29.7852-7.751Zm111.9385,46.0205v114.2578h-18.1885V183.7026h18.1885v104.9805h36.2549v16.2354h-36.2549Z"/></g><g class="n"><path class="p" d="M1332.3008,646.7275c-17.9043,0-32.3701-7.2217-43.3965-21.667-11.0283-14.4453-16.54-33.9971-16.54-58.6553,0-24.9824,5.4512-44.5952,16.3574-58.8374,10.9043-14.2402,25.4307-21.3623,43.5791-21.3623,18.0664,0,32.6328,7.1221,43.7012,21.3623,11.0664,14.2422,16.6016,33.855,16.6016,58.8374,0,24.8223-5.5547,44.4141-16.6631,58.7764-11.1084,14.3643-25.6553,21.5459-43.6396,21.5459Zm0-144.2866c-12.5332,0-22.7051,5.8398-30.5176,17.5166-7.8125,11.6787-11.7188,27.1606-11.7188,46.4478,0,19.207,3.9463,34.6885,11.8408,46.4482,7.8926,11.7598,18.0244,17.6387,30.3955,17.6387,12.2871,0,22.3994-5.8994,30.334-17.7002,7.9346-11.7988,11.9023-27.2617,11.9023-46.3867,0-19.3672-3.8877-34.8696-11.6582-46.5083-7.7725-11.6367-17.9648-17.4561-30.5781-17.4561Zm104.0039,203.7349v-235.4731h18.3105v235.4731h-18.3105Z"/></g><g class="n"><path class="p" d="M1304.1025,831.1885v30.7617h16.1133c38.4922,0,67.4229-.7324,86.792-2.1973l1.0986,15.5029c-29.2969,1.9531-70.0684,2.9297-122.3145,2.9297v-108.2764h113.0371v16.2354h-94.7266v29.2969h82.7637v15.7471h-82.7637Zm76.416,158.8135c-24.5781,0-43.5791-4.0088-57.0068-12.0234-13.4277-8.0156-20.1416-18.6162-20.1416-31.7998s6.7139-23.7617,20.1416-31.7383c13.4277-7.9746,32.4287-11.9629,57.0068-11.9629,24.7383,0,43.8418,3.9678,57.3115,11.9014,13.4678,7.9355,20.2031,18.5361,20.2031,31.7998,0,13.3477-6.7139,23.9873-20.1416,31.9209-13.4277,7.9355-32.5527,11.9023-57.373,11.9023Zm0-72.0215c-18.6367,0-32.9189,2.5439-42.8467,7.6289-9.9297,5.0869-14.8926,11.9443-14.8926,20.5693,0,8.5449,4.9229,15.4014,14.7705,20.5693,9.8457,5.167,24.1699,7.751,42.9688,7.751,19.043,0,33.5273-2.584,43.457-7.751,9.9277-5.168,14.8926-12.0244,14.8926-20.5693,0-8.625-5.0049-15.4824-15.0146-20.5693-10.0098-5.085-24.4561-7.6289-43.335-7.6289Zm55.2979-15.9912v-144.2871h18.3105v144.2871h-18.3105Z"/></g></g></g></g><g><g id="l" class="n"><g class="n"><path class="p" d="M1633.2627,213.2104v33.4473c28.5645-.4062,52.2461-1.2207,71.0449-2.4414l1.2207,15.7471c-42.9688,2.5234-96.1113,3.7842-159.4238,3.7842l-1.8311-15.9912c21.5645,0,45.166-.2842,70.8008-.8545v-33.4473c-16.1133-1.4648-28.4844-6.123-37.1094-13.9775-8.627-7.8525-12.9395-17.4346-12.9395-28.7471,0-12.6953,5.2891-23.0908,15.8691-31.1885,10.5781-8.0977,25.0645-12.1465,43.457-12.1465,18.1465,0,32.5107,3.9668,43.0908,11.9023,10.5781,7.9336,15.8691,18.0049,15.8691,30.2119,0,11.9629-4.376,21.8711-13.1221,29.7236-8.75,7.8545-21.0576,12.5127-36.9268,13.9775Zm-17.9443-144.5312h17.9443v30.7617h61.2793v16.2354h-140.7471v-16.2354h61.5234v-30.7617Zm9.0332,74.2188c-12.6953,0-22.7051,2.584-30.0293,7.751-7.3242,5.1689-10.9863,11.8623-10.9863,20.0811s3.6406,14.8525,10.9258,19.8975c7.2812,5.0469,17.3125,7.5684,30.0898,7.5684,12.6133,0,22.5625-2.543,29.8457-7.6289s10.9258-11.6982,10.9258-19.8369c0-8.2188-3.6621-14.9121-10.9863-20.0811-7.3242-5.167-17.2539-7.751-29.7852-7.751Zm111.9385,46.0205v114.2578h-18.1885V67.7026h18.1885v104.9805h36.2549v16.2354h-36.2549Z"/></g><g class="n"><path class="p" d="M1621.2998,530.728c-17.9043,0-32.3701-7.2217-43.3955-21.667-11.0293-14.4453-16.541-33.9971-16.541-58.6553,0-24.9824,5.4512-44.5957,16.3574-58.8379,10.9043-14.2402,25.4307-21.3623,43.5791-21.3623,18.0664,0,32.6328,7.1221,43.7012,21.3623,11.0664,14.2422,16.6016,33.8555,16.6016,58.8379,0,24.8223-5.5537,44.4141-16.6631,58.7764-11.1074,14.3643-25.6553,21.5459-43.6396,21.5459Zm0-144.2871c-12.5332,0-22.7051,5.8398-30.5176,17.5166-7.8125,11.6787-11.7188,27.1611-11.7188,46.4482,0,19.207,3.9463,34.6885,11.8408,46.4482,7.8926,11.7598,18.0244,17.6387,30.3955,17.6387,12.2871,0,22.3994-5.8994,30.335-17.7002,7.9336-11.7988,11.9014-27.2617,11.9014-46.3867,0-19.3672-3.8877-34.8701-11.6572-46.5088-7.7734-11.6367-17.9658-17.4561-30.5791-17.4561Zm104.0039,203.7349v-235.4731h18.3105v235.4731h-18.3105Z"/></g><g class="n"><path class="p" d="M1593.1016,715.1895v30.7617h16.1133c38.4922,0,67.4229-.7324,86.792-2.1973l1.0986,15.5029c-29.2969,1.9531-70.0684,2.9297-122.3145,2.9297v-108.2764h113.0371v16.2354h-94.7266v29.2969h82.7637v15.7471h-82.7637Zm76.416,158.8135c-24.5781,0-43.5791-4.0088-57.0068-12.0234-13.4277-8.0156-20.1416-18.6162-20.1416-31.7998s6.7139-23.7617,20.1416-31.7383c13.4277-7.9746,32.4287-11.9629,57.0068-11.9629,24.7383,0,43.8418,3.9678,57.3125,11.9014,13.4668,7.9355,20.2021,18.5361,20.2021,31.7998,0,13.3477-6.7139,23.9873-20.1416,31.9209-13.4277,7.9355-32.5527,11.9023-57.373,11.9023Zm0-72.0215c-18.6367,0-32.9189,2.5439-42.8467,7.6289-9.9297,5.0869-14.8926,11.9443-14.8926,20.5693,0,8.5449,4.9229,15.4014,14.7705,20.5693,9.8457,5.167,24.1699,7.751,42.9688,7.751,19.043,0,33.5273-2.584,43.457-7.751,9.9277-5.168,14.8926-12.0244,14.8926-20.5693,0-8.625-5.0049-15.4824-15.0146-20.5693-10.0098-5.085-24.4561-7.6289-43.335-7.6289Zm55.2979-15.9912v-144.2871h18.3105v144.2871h-18.3105Z"/></g></g><g transform="matrix(1, 0, 0, 1, 0, 0)"><g id="m" class="n"><g class="n"><path class="p" d="M1633.2627,213.2104v33.4473c28.5645-.4062,52.2461-1.2207,71.0449-2.4414l1.2207,15.7471c-42.9688,2.5234-96.1113,3.7842-159.4238,3.7842l-1.8311-15.9912c21.5645,0,45.166-.2842,70.8008-.8545v-33.4473c-16.1133-1.4648-28.4844-6.123-37.1094-13.9775-8.627-7.8525-12.9395-17.4346-12.9395-28.7471,0-12.6953,5.2891-23.0908,15.8691-31.1885,10.5781-8.0977,25.0645-12.1465,43.457-12.1465,18.1465,0,32.5107,3.9668,43.0908,11.9023,10.5781,7.9336,15.8691,18.0049,15.8691,30.2119,0,11.9629-4.376,21.8711-13.1221,29.7236-8.75,7.8545-21.0576,12.5127-36.9268,13.9775Zm-17.9443-144.5312h17.9443v30.7617h61.2793v16.2354h-140.7471v-16.2354h61.5234v-30.7617Zm9.0332,74.2188c-12.6953,0-22.7051,2.584-30.0293,7.751-7.3242,5.1689-10.9863,11.8623-10.9863,20.0811s3.6406,14.8525,10.9258,19.8975c7.2812,5.0469,17.3125,7.5684,30.0898,7.5684,12.6133,0,22.5625-2.543,29.8457-7.6289s10.9258-11.6982,10.9258-19.8369c0-8.2188-3.6621-14.9121-10.9863-20.0811-7.3242-5.167-17.2539-7.751-29.7852-7.751Zm111.9385,46.0205v114.2578h-18.1885V67.7026h18.1885v104.9805h36.2549v16.2354h-36.2549Z"/></g><g class="n"><path class="p" d="M1621.2998,530.728c-17.9043,0-32.3701-7.2217-43.3955-21.667-11.0293-14.4453-16.541-33.9971-16.541-58.6553,0-24.9824,5.4512-44.5957,16.3574-58.8379,10.9043-14.2402,25.4307-21.3623,43.5791-21.3623,18.0664,0,32.6328,7.1221,43.7012,21.3623,11.0664,14.2422,16.6016,33.8555,16.6016,58.8379,0,24.8223-5.5537,44.4141-16.6631,58.7764-11.1074,14.3643-25.6553,21.5459-43.6396,21.5459Zm0-144.2871c-12.5332,0-22.7051,5.8398-30.5176,17.5166-7.8125,11.6787-11.7188,27.1611-11.7188,46.4482,0,19.207,3.9463,34.6885,11.8408,46.4482,7.8926,11.7598,18.0244,17.6387,30.3955,17.6387,12.2871,0,22.3994-5.8994,30.335-17.7002,7.9336-11.7988,11.9014-27.2617,11.9014-46.3867,0-19.3672-3.8877-34.8701-11.6572-46.5088-7.7734-11.6367-17.9658-17.4561-30.5791-17.4561Zm104.0039,203.7349v-235.4731h18.3105v235.4731h-18.3105Z"/></g><g class="n"><path class="p" d="M1593.1016,715.1895v30.7617h16.1133c38.4922,0,67.4229-.7324,86.792-2.1973l1.0986,15.5029c-29.2969,1.9531-70.0684,2.9297-122.3145,2.9297v-108.2764h113.0371v16.2354h-94.7266v29.2969h82.7637v15.7471h-82.7637Zm76.416,158.8135c-24.5781,0-43.5791-4.0088-57.0068-12.0234-13.4277-8.0156-20.1416-18.6162-20.1416-31.7998s6.7139-23.7617,20.1416-31.7383c13.4277-7.9746,32.4287-11.9629,57.0068-11.9629,24.7383,0,43.8418,3.9678,57.3125,11.9014,13.4668,7.9355,20.2021,18.5361,20.2021,31.7998,0,13.3477-6.7139,23.9873-20.1416,31.9209-13.4277,7.9355-32.5527,11.9023-57.373,11.9023Zm0-72.0215c-18.6367,0-32.9189,2.5439-42.8467,7.6289-9.9297,5.0869-14.8926,11.9443-14.8926,20.5693,0,8.5449,4.9229,15.4014,14.7705,20.5693,9.8457,5.167,24.1699,7.751,42.9688,7.751,19.043,0,33.5273-2.584,43.457-7.751,9.9277-5.168,14.8926-12.0244,14.8926-20.5693,0-8.625-5.0049-15.4824-15.0146-20.5693-10.0098-5.085-24.4561-7.6289-43.335-7.6289Zm55.2979-15.9912v-144.2871h18.3105v144.2871h-18.3105Z"/></g></g></g></g></svg>