<svg id="Component_2_1" data-name="Component 2 – 1" xmlns="http://www.w3.org/2000/svg" width="58" height="58" viewBox="0 0 58 58">
  <path id="Icon_feather-twitter" data-name="Icon feather-twitter" d="M34.753,4.5a16.475,16.475,0,0,1-4.746,2.313,6.771,6.771,0,0,0-11.88,4.534v1.511a16.112,16.112,0,0,1-13.6-6.847s-6.046,13.6,7.557,19.649A17.594,17.594,0,0,1,1.5,28.684c13.6,7.557,30.23,0,30.23-17.382a6.8,6.8,0,0,0-.121-1.255A11.669,11.669,0,0,0,34.753,4.5Z" transform="translate(11.874 13.266)" fill="none" stroke="#fff" stroke-linecap="round" stroke-linejoin="round" stroke-width="3"/>
  <g id="Ellipse_95" data-name="Ellipse 95" fill="none" stroke="#fff" stroke-width="3">
    <circle cx="29" cy="29" r="29" stroke="none"/>
    <circle cx="29" cy="29" r="27.5" fill="none"/>
  </g>
</svg>
