<?xml version="1.0" encoding="UTF-8"?><svg xmlns="http://www.w3.org/2000/svg" viewBox="0 0 204 204"><defs><style>.cls-1{fill:#fff;}.cls-2{fill:none;stroke:#fff;stroke-miterlimit:10;stroke-width:4px;}</style></defs><g id="Layer_1"><path class="cls-1" d="M102,8c51.83,0,94,42.17,94,94s-42.17,94-94,94S8,153.83,8,102,50.17,8,102,8m0-8C45.67,0,0,45.67,0,102s45.67,102,102,102,102-45.67,102-102S158.33,0,102,0h0Z"/></g><g id="Layer_2"><path class="cls-1" d="M99.93,86.66c7.87,0,14.27,6.4,14.27,14.27s-6.4,14.27-14.27,14.27-14.27-6.4-14.27-14.27,6.4-14.27,14.27-14.27m0-22c-20.03,0-36.27,16.24-36.27,36.27s16.24,36.27,36.27,36.27,36.27-16.24,36.27-36.27-16.24-36.27-36.27-36.27h0Z"/><path class="cls-2" d="M113.53,18.22c43.59,4.92,67.66,39.85,69.35,77.43"/><path class="cls-2" d="M114.26,33.48c33.6,4.9,51.34,32.53,51.71,61.65"/><path class="cls-2" d="M115.78,50.91c24.24,4.58,36.36,24.05,35.82,43.9"/><path class="cls-2" d="M88.94,185.61c-43.59-4.92-67.66-39.85-69.35-77.43"/><path class="cls-2" d="M88.21,170.35c-33.6-4.9-51.34-32.53-51.71-61.65"/><path class="cls-2" d="M86.69,152.92c-24.24-4.58-36.36-24.05-35.82-43.9"/></g></svg>